<svg xmlns="http://www.w3.org/2000/svg" width="256" height="256" viewBox="0 0 256 256">
  <defs>
    <linearGradient id="g" x1="0" x2="1" y1="0" y2="1">
      <stop offset="0%" stop-color="#0ea5a4"/>
      <stop offset="100%" stop-color="#06b6d4"/>
    </linearGradient>
  </defs>
  <rect width="256" height="256" rx="32" fill="url(#g)"/>
  <g transform="translate(40,40) scale(0.75)" fill="#fff" fill-rule="evenodd">
    <path d="M96 8a88 88 0 1 0 0 176A88 88 0 0 0 96 8zm0 24a64 64 0 1 1 0 128 64 64 0 0 1 0-128z" opacity="0.15"/>
    <path d="M120.5 56.2c-1.9-0.1-3.8 0.3-5.6 1-12 4.6-20.9 16.9-20.9 30.8 0 18.3 14.9 33.2 33.2 33.2 13.9 0 26.2-8.9 30.8-20.9 0.7-1.8 1.1-3.7 1-5.6 0-1.7-0.4-3.4-1.1-4.9-4.6-12-16.9-20.9-30.8-20.9-1.8 0-3.6 0.2-5.4 0.6z"/>
    <circle cx="160" cy="64" r="8"/>
  </g>
</svg>